<svg width="91" height="40" viewBox="0 0 91 40" fill="none" xmlns="http://www.w3.org/2000/svg">
<path fill-rule="evenodd" clip-rule="evenodd" d="M8.00002 31C2.46966 31 0 26.6429 0 22.3223C0 19.371 1.01552 15.9725 2.71732 13.2275C4.3502 10.5767 6.33021 9 8.00002 9C9.66512 9 11.6442 10.5767 13.2914 13.2275C14.9852 15.9725 16 19.371 16 22.3223C16 26.6429 13.5254 31 8.00002 31ZM52 15.3999H57.5349V30H63.4651V15.3999H69V10H52V15.3999ZM82.2835 15.4001H91V10H82.2842C74.2756 10 70 14.02 70 20C70 25.98 74.2756 30 82.2842 30H91V24.6H82.2835C78.5779 24.6 76.1407 23.2625 76.1407 20C76.1407 16.7376 78.5779 15.4001 82.2835 15.4001ZM39.2436 10L35.9985 21.9377L32.7533 10H22V30H28.0868L28.087 13.7321L32.5088 30H39.4881L43.9128 13.7218V30H50V10H39.2436Z" fill="#E30611"/>
</svg>
